<svg width="42" height="42" viewBox="0 0 42 42" fill="none" xmlns="http://www.w3.org/2000/svg">
<rect x="0.5" y="0.5" width="41" height="41" rx="20.5" fill="white"/>
<rect x="0.5" y="0.5" width="41" height="41" rx="20.5" stroke="#E6E6E9"/>
<path d="M22.4417 28.5013C22.2952 28.7539 22.0849 28.9635 21.8319 29.1092C21.5788 29.255 21.292 29.3317 21 29.3317C20.708 29.3317 20.4212 29.255 20.1681 29.1092C19.9151 28.9635 19.7048 28.7539 19.5583 28.5013M26 17.668C26 16.3419 25.4732 15.0701 24.5355 14.1324C23.5979 13.1948 22.3261 12.668 21 12.668C19.6739 12.668 18.4021 13.1948 17.4645 14.1324C16.5268 15.0701 16 16.3419 16 17.668C16 23.5013 13.5 25.168 13.5 25.168H28.5C28.5 25.168 26 23.5013 26 17.668Z" stroke="#2F3344" stroke-width="1.66667" stroke-linecap="round" stroke-linejoin="round"/>
</svg>
