<svg width="248" height="48" viewBox="0 0 248 48" fill="none" xmlns="http://www.w3.org/2000/svg">
<rect width="248" height="48" rx="8" fill="#EAF0EF"/>
<g filter="url(#filter0_dd_4468_21080)">
<circle cx="96.5" cy="24" r="16" fill="#2F6A62"/>
</g>
<g filter="url(#filter1_b_4468_21080)">
<path d="M80.5 24H112.5C112.5 32.8366 105.337 40 96.5 40C87.6634 40 80.5 32.8366 80.5 24Z" fill="white" fill-opacity="0.2"/>
</g>
<path d="M128.52 31.24C127.493 31.24 126.593 31.06 125.82 30.7C125.06 30.3267 124.467 29.8067 124.04 29.14C123.613 28.4733 123.393 27.6933 123.38 26.8H125.48C125.493 27.3067 125.613 27.7733 125.84 28.2C126.08 28.6133 126.42 28.9467 126.86 29.2C127.313 29.44 127.867 29.56 128.52 29.56C129.08 29.56 129.56 29.4667 129.96 29.28C130.373 29.0933 130.687 28.84 130.9 28.52C131.113 28.1867 131.22 27.8067 131.22 27.38C131.22 26.8733 131.107 26.4667 130.88 26.16C130.653 25.84 130.347 25.58 129.96 25.38C129.573 25.1667 129.127 24.98 128.62 24.82C128.127 24.66 127.607 24.4867 127.06 24.3C125.967 23.9267 125.153 23.46 124.62 22.9C124.087 22.3267 123.82 21.58 123.82 20.66C123.82 19.8733 124 19.1933 124.36 18.62C124.733 18.0333 125.26 17.58 125.94 17.26C126.62 16.9267 127.413 16.76 128.32 16.76C129.227 16.76 130.02 16.9267 130.7 17.26C131.38 17.5933 131.913 18.0533 132.3 18.64C132.687 19.2267 132.887 19.9133 132.9 20.7H130.78C130.767 20.34 130.667 19.9867 130.48 19.64C130.293 19.2933 130.013 19.0133 129.64 18.8C129.267 18.5733 128.807 18.46 128.26 18.46C127.807 18.4467 127.4 18.52 127.04 18.68C126.68 18.84 126.4 19.0733 126.2 19.38C126 19.6867 125.9 20.0533 125.9 20.48C125.9 20.9067 125.987 21.2533 126.16 21.52C126.347 21.7733 126.613 21.9933 126.96 22.18C127.307 22.3667 127.707 22.54 128.16 22.7C128.627 22.8467 129.14 23.0133 129.7 23.2C130.393 23.4267 131.007 23.7067 131.54 24.04C132.087 24.36 132.52 24.78 132.84 25.3C133.16 25.8067 133.32 26.46 133.32 27.26C133.32 27.9533 133.133 28.6 132.76 29.2C132.4 29.8 131.867 30.2933 131.16 30.68C130.467 31.0533 129.587 31.24 128.52 31.24ZM135.719 31V21.02H137.719V31H135.719ZM136.719 19.08C136.345 19.08 136.032 18.96 135.779 18.72C135.525 18.48 135.399 18.1733 135.399 17.8C135.399 17.44 135.525 17.1467 135.779 16.92C136.032 16.68 136.345 16.56 136.719 16.56C137.092 16.56 137.405 16.68 137.659 16.92C137.912 17.1467 138.039 17.44 138.039 17.8C138.039 18.1733 137.912 18.48 137.659 18.72C137.405 18.96 137.092 19.08 136.719 19.08ZM146.079 31.24C145.545 31.24 145.052 31.1667 144.599 31.02C144.159 30.8733 143.765 30.6667 143.419 30.4C143.085 30.1333 142.805 29.82 142.579 29.46L142.379 31H140.579V16.6H142.579V22.58C142.899 22.1 143.345 21.68 143.919 21.32C144.492 20.96 145.219 20.78 146.099 20.78C147.059 20.78 147.905 21.0067 148.639 21.46C149.372 21.9133 149.939 22.54 150.339 23.34C150.752 24.1267 150.959 25.02 150.959 26.02C150.959 27.02 150.752 27.9133 150.339 28.7C149.939 29.4867 149.372 30.1067 148.639 30.56C147.905 31.0133 147.052 31.24 146.079 31.24ZM145.759 29.5C146.385 29.5 146.939 29.3533 147.419 29.06C147.899 28.7667 148.272 28.36 148.539 27.84C148.805 27.32 148.939 26.7133 148.939 26.02C148.939 25.3267 148.805 24.72 148.539 24.2C148.272 23.6667 147.899 23.2533 147.419 22.96C146.939 22.6667 146.385 22.52 145.759 22.52C145.132 22.52 144.579 22.6667 144.099 22.96C143.619 23.2533 143.245 23.66 142.979 24.18C142.712 24.7 142.579 25.3133 142.579 26.02C142.579 26.7133 142.712 27.32 142.979 27.84C143.245 28.36 143.619 28.7667 144.099 29.06C144.579 29.3533 145.132 29.5 145.759 29.5ZM153.594 35.4L156.074 29.88H155.474L151.494 21.02H153.654L156.834 28.26L160.014 21.02H162.114L155.694 35.4H153.594ZM163.88 31V16.6H165.88V31H163.88Z" fill="#2F6A62"/>
<defs>
<filter id="filter0_dd_4468_21080" x="77.5" y="6" width="38" height="38" filterUnits="userSpaceOnUse" color-interpolation-filters="sRGB">
<feFlood flood-opacity="0" result="BackgroundImageFix"/>
<feColorMatrix in="SourceAlpha" type="matrix" values="0 0 0 0 0 0 0 0 0 0 0 0 0 0 0 0 0 0 127 0" result="hardAlpha"/>
<feOffset dy="1"/>
<feGaussianBlur stdDeviation="1"/>
<feColorMatrix type="matrix" values="0 0 0 0 0.0627451 0 0 0 0 0.0941176 0 0 0 0 0.156863 0 0 0 0.06 0"/>
<feBlend mode="normal" in2="BackgroundImageFix" result="effect1_dropShadow_4468_21080"/>
<feColorMatrix in="SourceAlpha" type="matrix" values="0 0 0 0 0 0 0 0 0 0 0 0 0 0 0 0 0 0 127 0" result="hardAlpha"/>
<feOffset dy="1"/>
<feGaussianBlur stdDeviation="1.5"/>
<feColorMatrix type="matrix" values="0 0 0 0 0.0627451 0 0 0 0 0.0941176 0 0 0 0 0.156863 0 0 0 0.1 0"/>
<feBlend mode="normal" in2="effect1_dropShadow_4468_21080" result="effect2_dropShadow_4468_21080"/>
<feBlend mode="normal" in="SourceGraphic" in2="effect2_dropShadow_4468_21080" result="shape"/>
</filter>
<filter id="filter1_b_4468_21080" x="75.5" y="19" width="42" height="26" filterUnits="userSpaceOnUse" color-interpolation-filters="sRGB">
<feFlood flood-opacity="0" result="BackgroundImageFix"/>
<feGaussianBlur in="BackgroundImageFix" stdDeviation="2.5"/>
<feComposite in2="SourceAlpha" operator="in" result="effect1_backgroundBlur_4468_21080"/>
<feBlend mode="normal" in="SourceGraphic" in2="effect1_backgroundBlur_4468_21080" result="shape"/>
</filter>
</defs>
</svg>
