<svg width="125" height="125" viewBox="0 0 125 125" fill="none" xmlns="http://www.w3.org/2000/svg">
<path d="M124.668 62.6669C124.668 66.7563 118.781 70.1947 117.992 74.0508C117.203 77.9069 121.293 83.2576 119.795 86.801C118.296 90.3444 111.626 91.0873 109.497 94.2387C107.368 97.39 109.189 103.828 106.509 106.508C103.829 109.187 97.3912 107.366 94.2397 109.496C91.0883 111.625 90.3455 118.295 86.802 119.794C83.2586 121.292 77.9079 117.202 74.0518 117.991C70.1958 118.78 66.7574 124.667 62.668 124.667C58.5787 124.667 55.1403 118.78 51.2842 117.991C47.4281 117.202 42.0774 121.292 38.534 119.794C34.9906 118.295 34.2477 111.625 31.0963 109.496C27.9449 107.366 21.5073 109.187 18.8274 106.508C16.1475 103.828 17.9685 97.39 15.8395 94.2387C13.7104 91.0874 7.04014 90.3445 5.54141 86.801C4.04268 83.2575 8.13312 77.9069 7.34401 74.0508C6.55489 70.1947 0.667969 66.7563 0.667969 62.6669C0.667969 58.5776 6.55489 55.1392 7.34391 51.2831C8.13303 47.427 4.04259 42.0763 5.54132 38.5329C7.04005 34.9895 13.7103 34.2466 15.8394 31.0953C17.9684 27.944 16.1475 21.5063 18.8273 18.8264C21.5072 16.1465 27.9449 17.9675 31.0962 15.8385C34.2475 13.7094 34.9904 7.03916 38.5339 5.54043C42.0773 4.0417 47.428 8.13214 51.2841 7.34303C55.1402 6.55392 58.5786 0.666992 62.6679 0.666992C66.7573 0.666992 70.1957 6.55392 74.0518 7.34303C77.9078 8.13214 83.2585 4.0417 86.8019 5.54043C90.3454 7.03916 91.0882 13.7094 94.2397 15.8385C97.3911 17.9675 103.829 16.1466 106.509 18.8264C109.188 21.5062 107.367 27.9439 109.496 31.0953C111.626 34.2466 118.296 34.9895 119.795 38.5329C121.293 42.0763 117.203 47.427 117.992 51.2831C118.781 55.1392 124.668 58.5776 124.668 62.6669Z" fill="#2F6A62"/>
<path d="M103.33 39.5665L95.5012 31.739C94.3555 30.5935 92.4983 30.5935 91.3527 31.7391L51.3772 71.716L33.9888 54.3276C32.8432 53.1821 30.9859 53.182 29.8402 54.3275L22.0117 62.155C20.8659 63.3006 20.8659 65.1581 22.0116 66.3038L49.303 93.5956C50.4485 94.7411 52.3059 94.7411 53.4514 93.5956L103.33 43.7153C104.476 42.5695 104.475 40.7121 103.33 39.5665Z" fill="white"/>
</svg>
